# xmcd CD database file
#
# Track frame offsets:
#	150
#	11234
#	25111
#	33699
#	48612
#	65786
#	81474
#	100035
#	116002
#	129553
#	145101
#	162662
#	170972
#	181658
#	191135
#	205386
#
# Disc length: 2840 seconds
#
# Revision: 0
# Processed by: cddbd v1.4PL0 Copyright (c) Steve Scherf et al.
# Submitted via: CDex 1.50beta10
#
DISCID=f40b1610
DTITLE=Cal Newman - Windin' Boy
DYEAR=1900
DGENRE=Blues
TTITLE0=Roberta
TTITLE1=Come Back Baby
TTITLE2=Shake Your Ya Ya Yas
TTITLE3=Windin' Boy
TTITLE4=Driftin' Blues
TTITLE5=Troubled In Mind
TTITLE6=Goodnight Irene
TTITLE7=It Hurts Me Too
TTITLE8=The Bourgeois Blues
TTITLE9=Kassie Jones
TTITLE10=I've Got My Mojo Working
TTITLE11=Satisfied and Tickled Too
TTITLE12=Cocaine Killed My Baby
TTITLE13=Long Legged Woman
TTITLE14=Stag O' Lee
TTITLE15=Doc's Guitar
EXTD=
EXTT0=
EXTT1=
EXTT2=
EXTT3=
EXTT4=
EXTT5=
EXTT6=
EXTT7=
EXTT8=
EXTT9=
EXTT10=
EXTT11=
EXTT12=
EXTT13=
EXTT14=
EXTT15=
PLAYORDER=
